<?xml version="1.0" encoding="UTF-8"?>
<svg version="1.1" xmlns="http://www.w3.org/2000/svg" width="383" height="344">
<path d="M0 0 C126.39 0 252.78 0 383 0 C383 113.52 383 227.04 383 344 C256.61 344 130.22 344 0 344 C0 230.48 0 116.96 0 0 Z " fill="#E5E5E5" transform="translate(0,0)"/>
<path d="M0 0 C2.40612347 2.62486197 3.05393093 4.25306052 3.8125 7.8125 C4.90027134 12.68934152 7.55168824 15.51754654 11 19 C12.2684375 20.3303125 12.2684375 20.3303125 13.5625 21.6875 C15.95529517 23.95758772 18.39014857 25.98329662 21 28 C21.72960937 28.58394531 22.45921875 29.16789062 23.2109375 29.76953125 C24.00757813 30.40246094 24.80421875 31.03539062 25.625 31.6875 C26.38039063 32.28949219 27.13578125 32.89148438 27.9140625 33.51171875 C30.02388011 35.17105875 30.02388011 35.17105875 33 36 C33 36.66 33 37.32 33 38 C33.72445312 38.27972656 34.44890625 38.55945313 35.1953125 38.84765625 C37.83342928 39.93156217 40.33820884 41.13668536 42.875 42.4375 C43.75285156 42.87578125 44.63070312 43.3140625 45.53515625 43.765625 C47.4647729 44.73196234 49.38958221 45.70790037 51.3125 46.6875 C56.74150372 48.61985726 62.30022581 49.27145743 68 50 C68 50.66 68 51.32 68 52 C88.51434083 52.18071286 107.46064804 50.35577204 126 41 C126.99 41 127.98 41 129 41 C129 40.34 129 39.68 129 39 C130.86328125 37.4921875 130.86328125 37.4921875 133.3125 35.875 C134.11300781 35.33617187 134.91351563 34.79734375 135.73828125 34.2421875 C138 33 138 33 141 33 C141.33 32.01 141.66 31.02 142 30 C147.46511628 25 147.46511628 25 150 25 C150.37125 24.13375 150.37125 24.13375 150.75 23.25 C152.16926295 20.6953267 153.94069854 19.05930146 156 17 C157.23512079 14.86690808 157.23512079 14.86690808 158 13 C158.66 13 159.32 13 160 13 C160.28875 11.865625 160.5775 10.73125 160.875 9.5625 C161.431875 7.7990625 161.431875 7.7990625 162 6 C162.66 5.67 163.32 5.34 164 5 C165.13350534 2.98330173 165.13350534 2.98330173 166 1 C167.77119803 1.14133499 169.54195287 1.28823208 171.3125 1.4375 C172.29863281 1.51871094 173.28476562 1.59992188 174.30078125 1.68359375 C177 2 177 2 180 3 C180 3.66 180 4.32 180 5 C181.27875 5.144375 182.5575 5.28875 183.875 5.4375 C186.25692894 5.70642746 187.84452691 5.92226346 190 7 C190 7.66 190 8.32 190 9 C191.216875 9.268125 192.43375 9.53625 193.6875 9.8125 C199.0782498 11.17916896 202.5752019 13.39769507 206.4296875 17.421875 C210.80892486 21.82289961 215.53918755 25.92618712 220.28515625 29.92578125 C225.54758596 34.36196031 229.3434485 38.1371438 231 45 C231.45246094 45.42667969 231.90492188 45.85335937 232.37109375 46.29296875 C242.9143832 57.34193156 244.34126029 77.76339457 244.25 92 C244.25773437 93.2065625 244.26546875 94.413125 244.2734375 95.65625 C244.23163756 114.88422438 237.399527 135.00352191 225 150 C222 152 222 152 219 152 C218.89945312 152.58910156 218.79890625 153.17820312 218.6953125 153.78515625 C216.89524063 159.51909305 210.52024849 163.58217581 205.67578125 166.76171875 C203.89117059 167.99559035 203.89117059 167.99559035 202.28515625 169.890625 C199.21425169 172.72530613 195.89361416 174.31017428 192.125 176.0625 C191.37557129 176.41320557 190.62614258 176.76391113 189.85400391 177.12524414 C183.04246769 180.19223743 176.40028815 181.88903863 169 183 C167.91460937 183.18433594 166.82921875 183.36867188 165.7109375 183.55859375 C161.20146437 184.09498371 156.78643475 184.1498901 152.25 184.125 C151.36546143 184.12161621 150.48092285 184.11823242 149.56958008 184.11474609 C140.78153319 184.04536465 132.39259669 183.79753223 124 181 C124 180.34 124 179.68 124 179 C123.34128906 179.07734375 122.68257812 179.1546875 122.00390625 179.234375 C117.78202292 178.90496928 114.66196312 177.17538698 110.9375 175.25 C109.87692383 174.72792969 109.87692383 174.72792969 108.79492188 174.1953125 C104.85336828 172.19677828 102.10495465 170.17840519 99 167 C98.1853125 166.69191406 97.370625 166.38382813 96.53125 166.06640625 C92.33221497 164.29736835 90.10574616 160.68081879 87.28125 157.21484375 C85.16207851 154.88867642 85.16207851 154.88867642 82.484375 153.94140625 C79.88209202 153.76013255 79.88209202 153.76013255 77.859375 155.625 C77.16328125 156.40875 76.4671875 157.1925 75.75 158 C70.09640612 164.02987301 64.30652743 170.08310905 56 172 C56 172.66 56 173.32 56 174 C54.02 174.33 52.04 174.66 50 175 C50 175.66 50 176.32 50 177 C46.49223216 178.60355101 43.85645121 179.22036864 40 179 C40 179.66 40 180.32 40 181 C22.31990246 185.91113821 -2.20752127 187.22488754 -19 179 C-21.31760664 178.25045658 -23.64444468 177.62494325 -26 177 C-26 176.34 -26 175.68 -26 175 C-27.3921875 174.8453125 -27.3921875 174.8453125 -28.8125 174.6875 C-32.19105883 173.95879123 -32.78151133 173.42016946 -35 171 C-35.639375 170.855625 -36.27875 170.71125 -36.9375 170.5625 C-39.77360154 169.78901776 -40.96992533 168.09159208 -43 166 C-43.77472656 165.56300781 -44.54945312 165.12601563 -45.34765625 164.67578125 C-48.32440485 162.79503729 -50.21750929 160.73478226 -52.5 158.0625 C-54.80129315 155.37630747 -56.9427672 153.04553919 -59.71484375 150.83984375 C-62.36518059 148.70598281 -62.82581744 147.13115348 -64 144 C-64.61875 143.401875 -65.2375 142.80375 -65.875 142.1875 C-70.43244032 137.49601732 -72.36647989 131.27256447 -74.28125 125.1328125 C-75.02383409 122.77615547 -75.02383409 122.77615547 -76.5625 119.8125 C-80.61802078 110.31404343 -80.19447881 99.31900649 -80.25 89.1875 C-80.25926514 88.12611816 -80.26853027 87.06473633 -80.27807617 85.97119141 C-80.24601971 77.94953313 -79.53405955 70.52516988 -75.9375 63.25 C-74.48638023 60.16974204 -73.44000197 57.41001524 -73 54 C-72.34 54 -71.68 54 -71 54 C-70.9175 52.96875 -70.835 51.9375 -70.75 50.875 C-69.93536054 46.66602943 -68.67084086 44.31831743 -66 41 C-65.34 41 -64.68 41 -64 41 C-63.938125 40.443125 -63.87625 39.88625 -63.8125 39.3125 C-62.67469142 36.07412172 -60.45179752 34.2835369 -58 32 C-52.70782142 26.89190554 -52.70782142 26.89190554 -47.9375 21.3125 C-44.34842758 17.0287684 -40.41030786 14.31296174 -35 13 C-34.319375 12.2575 -34.319375 12.2575 -33.625 11.5 C-31.30745317 9.36072601 -29.06440101 9.340489 -26 9 C-26 8.34 -26 7.68 -26 7 C-25.11957031 6.73445312 -24.23914063 6.46890625 -23.33203125 6.1953125 C-21.58986328 5.66550781 -21.58986328 5.66550781 -19.8125 5.125 C-18.66394531 4.77695313 -17.51539063 4.42890625 -16.33203125 4.0703125 C-13.08352084 3.07566434 -13.08352084 3.07566434 -10.34375 1.90625 C-6.91161897 0.57915933 -3.65202673 0.37139255 0 0 Z " fill="#DF99A6" transform="translate(104,143)"/>
<path d="M0 0 C1.10214844 0.82951172 1.10214844 0.82951172 2.2265625 1.67578125 C3.14695313 2.36285156 4.06734375 3.04992187 5.015625 3.7578125 C6.11003906 4.70720703 6.11003906 4.70720703 7.2265625 5.67578125 C7.2265625 6.33578125 7.2265625 6.99578125 7.2265625 7.67578125 C7.9896875 7.94390625 8.7528125 8.21203125 9.5390625 8.48828125 C12.13140229 9.63373372 13.52731787 10.43993306 15.2265625 12.67578125 C15.2265625 13.66578125 15.2265625 14.65578125 15.2265625 15.67578125 C15.8040625 15.91039063 16.3815625 16.145 16.9765625 16.38671875 C23.71637053 20.2480671 28.33010058 28.67599828 31.2265625 35.67578125 C31.2265625 36.99578125 31.2265625 38.31578125 31.2265625 39.67578125 C31.8865625 39.67578125 32.5465625 39.67578125 33.2265625 39.67578125 C43.76747548 65.96556818 43.34504106 91.61684714 32.2265625 117.67578125 C31.94425781 118.33771484 31.66195312 118.99964844 31.37109375 119.68164062 C30.65924392 121.3476366 29.94331605 123.01188909 29.2265625 124.67578125 C28.5665625 124.67578125 27.9065625 124.67578125 27.2265625 124.67578125 C27.0821875 125.45953125 26.9378125 126.24328125 26.7890625 127.05078125 C26.2265625 129.67578125 26.2265625 129.67578125 25.2265625 131.67578125 C24.5665625 131.67578125 23.9065625 131.67578125 23.2265625 131.67578125 C23.0203125 132.35640625 22.8140625 133.03703125 22.6015625 133.73828125 C20.79809249 137.59114899 18.41376792 140.83932093 15.2265625 143.67578125 C13.90146667 144.04048652 12.56846643 144.37882547 11.2265625 144.67578125 C10.11819827 146.55894284 10.11819827 146.55894284 9.2265625 148.67578125 C5.6229361 153.22773039 -0.43322151 155.73388453 -5.7734375 157.67578125 C-5.7734375 158.33578125 -5.7734375 158.99578125 -5.7734375 159.67578125 C-10.72814762 161.80236037 -15.72505426 163.78249758 -20.7734375 165.67578125 C-21.44197754 165.93149902 -22.11051758 166.1872168 -22.79931641 166.45068359 C-37.18501247 171.76736627 -51.61761581 171.20213753 -66.7734375 170.67578125 C-66.7734375 170.01578125 -66.7734375 169.35578125 -66.7734375 168.67578125 C-67.59585938 168.66160156 -68.41828125 168.64742187 -69.265625 168.6328125 C-77.37002955 168.28655041 -82.79440709 166.66379863 -89.7734375 162.67578125 C-91.03501198 162.11288696 -92.30519628 161.5685863 -93.5859375 161.05078125 C-96.51497693 159.78727405 -99.15641749 158.4997649 -101.7734375 156.67578125 C-101.7734375 156.01578125 -101.7734375 155.35578125 -101.7734375 154.67578125 C-102.64355469 154.51335937 -102.64355469 154.51335937 -103.53125 154.34765625 C-106.06067478 153.58971015 -107.57114747 152.54423212 -109.6484375 150.92578125 C-110.34324219 150.38566406 -111.03804687 149.84554687 -111.75390625 149.2890625 C-112.75357422 148.49048828 -112.75357422 148.49048828 -113.7734375 147.67578125 C-114.60294922 147.01642578 -114.60294922 147.01642578 -115.44921875 146.34375 C-123.07063864 140.1402687 -131.44291537 132.77529473 -133.2578125 122.75390625 C-133.878592 120.25197675 -134.93216639 118.25963091 -136.1484375 115.98828125 C-146.88581423 95.33704341 -147.15623935 71.6560247 -140.7734375 49.67578125 C-138.8756784 44.12272659 -136.43734295 38.89774161 -133.7734375 33.67578125 C-133.32355469 32.77859375 -132.87367188 31.88140625 -132.41015625 30.95703125 C-123.31893112 14.43728293 -108.6552358 1.73081073 -91.7734375 -6.32421875 C-90.82984375 -6.77539062 -89.88625 -7.2265625 -88.9140625 -7.69140625 C-81.39546966 -11.05289353 -73.85026597 -12.83187092 -65.7734375 -14.32421875 C-64.53980469 -14.60265625 -64.53980469 -14.60265625 -63.28125 -14.88671875 C-42.31232531 -18.54484891 -17.33062601 -11.82659984 0 0 Z " fill="#86CEDE" transform="translate(238.7734375,24.32421875)"/>
<path d="M0 0 C1.77119803 0.14133499 3.54195287 0.28823208 5.3125 0.4375 C6.29863281 0.51871094 7.28476562 0.59992188 8.30078125 0.68359375 C11 1 11 1 14 2 C14 2.66 14 3.32 14 4 C15.27875 4.144375 16.5575 4.28875 17.875 4.4375 C20.25692894 4.70642746 21.84452691 4.92226346 24 6 C24 6.66 24 7.32 24 8 C25.216875 8.268125 26.43375 8.53625 27.6875 8.8125 C33.0782498 10.17916896 36.5752019 12.39769507 40.4296875 16.421875 C44.80892486 20.82289961 49.53918755 24.92618712 54.28515625 28.92578125 C59.54758596 33.36196031 63.3434485 37.1371438 65 44 C65.45246094 44.42667969 65.90492188 44.85335937 66.37109375 45.29296875 C76.9143832 56.34193156 78.34126029 76.76339457 78.25 91 C78.25773438 92.2065625 78.26546875 93.413125 78.2734375 94.65625 C78.23163756 113.88422438 71.399527 134.00352191 59 149 C56 151 56 151 53 151 C52.89945313 151.58910156 52.79890625 152.17820312 52.6953125 152.78515625 C50.89524063 158.51909305 44.52024849 162.58217581 39.67578125 165.76171875 C37.89117059 166.99559035 37.89117059 166.99559035 36.28515625 168.890625 C33.21425169 171.72530613 29.89361416 173.31017428 26.125 175.0625 C25.37557129 175.41320557 24.62614258 175.76391113 23.85400391 176.12524414 C17.04246769 179.19223743 10.40028815 180.88903863 3 182 C1.91460937 182.18433594 0.82921875 182.36867188 -0.2890625 182.55859375 C-4.79853563 183.09498371 -9.21356525 183.1498901 -13.75 183.125 C-14.63453857 183.12161621 -15.51907715 183.11823242 -16.43041992 183.11474609 C-25.21846681 183.04536465 -33.60740331 182.79753223 -42 180 C-42 179.34 -42 178.68 -42 178 C-42.65871094 178.07734375 -43.31742188 178.1546875 -43.99609375 178.234375 C-48.21797708 177.90496928 -51.33803688 176.17538698 -55.0625 174.25 C-55.76955078 173.90195312 -56.47660156 173.55390625 -57.20507812 173.1953125 C-61.14663172 171.19677828 -63.89504535 169.17840519 -67 166 C-68.21816406 165.53400391 -68.21816406 165.53400391 -69.4609375 165.05859375 C-72.75613342 163.68475053 -74.31670832 161.76343923 -76.625 159.0625 C-80.19065213 154.91716017 -80.19065213 154.91716017 -84 151 C-83.04882866 149.8274869 -82.08882991 148.66212985 -81.125 147.5 C-80.32449219 146.52546875 -80.32449219 146.52546875 -79.5078125 145.53125 C-78.76144531 144.77328125 -78.76144531 144.77328125 -78 144 C-77.34 144 -76.68 144 -76 144 C-75.896875 143.28972656 -75.79375 142.57945312 -75.6875 141.84765625 C-74.91347554 138.64161174 -73.64911095 136.28776628 -72 133.4375 C-70.18756351 130.29623388 -68.67393671 127.58028877 -68 124 C-67.34 124 -66.68 124 -66 124 C-65.86722656 122.84242188 -65.73445313 121.68484375 -65.59765625 120.4921875 C-65.16454512 117.01354891 -64.54630428 113.60247535 -63.84448242 110.16674805 C-59.59725168 88.85925513 -63.20916571 70.32287435 -70 50 C-69.30438965 49.80365967 -68.6087793 49.60731934 -67.89208984 49.4050293 C-64.71794392 48.50534426 -61.54648653 47.59651315 -58.375 46.6875 C-57.28058594 46.37876953 -56.18617188 46.07003906 -55.05859375 45.75195312 C-49.73372329 44.21903587 -44.9211006 42.58795744 -40 40 C-39.01 40 -38.02 40 -37 40 C-37 39.34 -37 38.68 -37 38 C-35.13671875 36.4921875 -35.13671875 36.4921875 -32.6875 34.875 C-31.88699219 34.33617187 -31.08648437 33.79734375 -30.26171875 33.2421875 C-28 32 -28 32 -25 32 C-24.505 30.515 -24.505 30.515 -24 29 C-18.53488372 24 -18.53488372 24 -16 24 C-15.62875 23.13375 -15.62875 23.13375 -15.25 22.25 C-13.83073705 19.6953267 -12.05930146 18.05930146 -10 16 C-8.76487921 13.86690808 -8.76487921 13.86690808 -8 12 C-7.34 12 -6.68 12 -6 12 C-5.71125 10.865625 -5.4225 9.73125 -5.125 8.5625 C-4.568125 6.7990625 -4.568125 6.7990625 -4 5 C-3.34 4.67 -2.68 4.34 -2 4 C-0.86649466 1.98330173 -0.86649466 1.98330173 0 0 Z " fill="#FADB8F" transform="translate(270,144)"/>
<path d="M0 0 C19.6827895 -0.73401108 37.24958488 0.4929102 54.71484375 10.1953125 C57.86129353 12.03114375 57.86129353 12.03114375 60.87890625 13.0546875 C61.57886719 13.36664063 62.27882812 13.67859375 63 14 C63.495 15.485 63.495 15.485 64 17 C65.64333504 18.03789581 67.31243867 19.03567924 69 20 C70 21 71 22 72 23 C73.485 23.495 73.485 23.495 75 24 C76.53515625 25.59375 76.53515625 25.59375 78.0625 27.5 C80.17721767 30.18106401 80.17721767 30.18106401 83 32 C83.226875 31.29875 83.45375 30.5975 83.6875 29.875 C86.27910374 24.1981537 89.27366279 21.1814618 95 19 C96.12674862 18.02551471 97.22886078 17.02220843 98.3125 16 C102.00309262 12.66708596 105.14549807 11.85166701 110 11 C110 10.34 110 9.68 110 9 C111.32 9 112.64 9 114 9 C114 8.34 114 7.68 114 7 C127.72086591 2.35878756 139.56934312 -0.18137132 154.0625 -0.0625 C155.11888672 -0.05798828 156.17527344 -0.05347656 157.26367188 -0.04882812 C159.84250908 -0.03715918 162.42122294 -0.02078885 165 0 C164.67 1.98 164.34 3.96 164 6 C163.01 6.33 162.02 6.66 161 7 C160.855625 7.78375 160.71125 8.5675 160.5625 9.375 C160 12 160 12 159 14 C158.34 14 157.68 14 157 14 C156.79375 14.680625 156.5875 15.36125 156.375 16.0625 C154.57152999 19.91536774 152.18720542 23.16353968 149 26 C147.67490417 26.36470527 146.34190393 26.70304422 145 27 C143.89163577 28.88316159 143.89163577 28.88316159 143 31 C139.3963736 35.55194914 133.34021599 38.05810328 128 40 C128 40.66 128 41.32 128 42 C123.04528988 44.12657912 118.04838324 46.10671633 113 48 C112.33145996 48.25571777 111.66291992 48.51143555 110.97412109 48.77490234 C96.58842503 54.09158502 82.15582169 53.52635628 67 53 C67 52.34 67 51.68 67 51 C66.17757812 50.98582031 65.35515625 50.97164062 64.5078125 50.95703125 C56.40340795 50.61076916 50.97903041 48.98801738 44 45 C42.73842552 44.43710571 41.46824122 43.89280505 40.1875 43.375 C37.25846057 42.1114928 34.61702001 40.82398365 32 39 C32 38.34 32 37.68 32 37 C31.41992188 36.89171875 30.83984375 36.7834375 30.2421875 36.671875 C27.71276272 35.9139289 26.20229003 34.86845087 24.125 33.25 C23.08279297 32.43982422 23.08279297 32.43982422 22.01953125 31.61328125 C21.35308594 31.08089844 20.68664062 30.54851562 20 30 C19.44699219 29.56042969 18.89398438 29.12085938 18.32421875 28.66796875 C9.26108969 21.29100324 1.74243481 13.99194712 0.19140625 2.08984375 C0.12824219 1.40019531 0.06507812 0.71054688 0 0 Z " fill="#759BB2" transform="translate(105,142)"/>
<path d="M0 0 C6.08314386 -0.07463276 12.16601612 -0.12882912 18.24951172 -0.16479492 C20.31531421 -0.17980192 22.38108528 -0.200214 24.44677734 -0.22631836 C27.43074338 -0.26305961 30.41428507 -0.27980764 33.3984375 -0.29296875 C34.76468765 -0.31619453 34.76468765 -0.31619453 36.15853882 -0.33988953 C42.56776177 -0.34153955 47.97098019 0.86788093 54 3 C55.03125 3.350625 56.0625 3.70125 57.125 4.0625 C63.3694281 8.27070155 68.61197359 14.99928155 70.59765625 22.33203125 C72.1516347 32.63656799 72.09261732 43.6564024 67 53 C64.62188491 55.84238918 62.06752503 57.93765266 59 60 C58.40832031 60.40863281 57.81664062 60.81726563 57.20703125 61.23828125 C49.75397907 65.92841706 42.1100446 66.29074699 33.59375 66.1953125 C32.14579041 66.19106766 32.14579041 66.19106766 30.6685791 66.18673706 C27.61225522 66.17562124 24.55623399 66.15053285 21.5 66.125 C19.41667093 66.11495908 17.33333722 66.10583518 15.25 66.09765625 C10.16655163 66.07571011 5.08332697 66.04124017 0 66 C0 62.37 0 58.74 0 55 C2.97 55 5.94 55 9 55 C9.33 40.48 9.66 25.96 10 11 C6.7 11 3.4 11 0 11 C0 7.37 0 3.74 0 0 Z " fill="#57BBD1" transform="translate(151,70)"/>
<path d="M0 0 C6.56531452 -0.05086217 13.13057788 -0.08580161 19.69604492 -0.10986328 C21.92783507 -0.11989816 24.15961215 -0.13352907 26.39135742 -0.15087891 C29.60598993 -0.17523761 32.82044803 -0.18650847 36.03515625 -0.1953125 C37.02709488 -0.20563507 38.01903351 -0.21595764 39.04103088 -0.22659302 C44.40657014 -0.22745487 48.96897719 0.05418736 54 2 C54.495 2.99 54.495 2.99 55 4 C56.0725 4.556875 57.145 5.11375 58.25 5.6875 C62.3736776 7.96146214 64.79478126 10.86636822 67 15 C67.8125 17.9375 67.8125 17.9375 68 20 C68.66 20 69.32 20 70 20 C72.93288591 42.72986577 72.93288591 42.72986577 67 52 C65.68 52 64.36 52 63 52 C62.731875 52.5775 62.46375 53.155 62.1875 53.75 C58.45293146 60.8260246 53.29295573 62.53071644 45.9440918 65.04589844 C41.41910457 66.31855339 37.01830607 66.25132893 32.34765625 66.1953125 C31.44752304 66.1924826 30.54738983 66.18965271 29.61997986 66.18673706 C26.7673468 66.17561278 23.91503689 66.15052283 21.0625 66.125 C19.11914518 66.11496017 17.17578541 66.10583608 15.23242188 66.09765625 C10.48815824 66.07569888 5.74413376 66.04122301 1 66 C-0.71466036 62.57067929 -0.05404056 58.78283935 0 55 C3.3 55 6.6 55 10 55 C10 40.48 10 25.96 10 11 C7.36 11 4.72 11 2 11 C1.67 11.66 1.34 12.32 1 13 C0 12 0 12 -0.09765625 9.27734375 C-0.08605469 8.17519531 -0.07445312 7.07304687 -0.0625 5.9375 C-0.05347656 4.83277344 -0.04445312 3.72804687 -0.03515625 2.58984375 C-0.02355469 1.73519531 -0.01195312 0.88054687 0 0 Z " fill="#FBCE65" transform="translate(221,203)"/>
<path d="M0 0 C15.18 0 30.36 0 46 0 C46 0.66 46 1.32 46 2 C48.97 2 51.94 2 55 2 C55 2.66 55 3.32 55 4 C55.598125 4.061875 56.19625 4.12375 56.8125 4.1875 C59.90989762 5.33796197 60.43963679 7.13933412 62 10 C62.66 10.825 63.32 11.65 64 12.5 C70.76280499 20.95350623 71.69577565 29.44976923 71 40 C70.28503593 44.87621564 68.79990755 48.91680149 66 53 C65.34 53.99 64.68 54.98 64 56 C62.35443434 57.03435556 60.6829392 58.02763513 59 59 C57.93731833 59.85394063 56.87483205 60.70812446 55.8125 61.5625 C48.91544731 66.49172501 40.00934787 66.29261613 31.8359375 66.1953125 C30.91785309 66.1924826 29.99976868 66.18965271 29.05386353 66.18673706 C26.16076864 66.17566399 23.26799914 66.15058467 20.375 66.125 C18.39713993 66.11495352 16.41927494 66.10583061 14.44140625 66.09765625 C9.62748141 66.07576705 4.8137956 66.04132832 0 66 C0 62.37 0 58.74 0 55 C3.3 55 6.6 55 10 55 C10 40.48 10 25.96 10 11 C6.7 11 3.4 11 0 11 C0 7.37 0 3.74 0 0 Z " fill="#FC6A76" transform="translate(81,203)"/>
<path d="M0 0 C1.30195313 0.00322266 2.60390625 0.00644531 3.9453125 0.00976562 C5.32552149 0.01812159 6.70572982 0.02658654 8.0859375 0.03515625 C9.47395676 0.04017124 10.86197772 0.04473415 12.25 0.04882812 C15.65368882 0.06064649 19.05729189 0.07712191 22.4609375 0.09765625 C27.39129059 9.51042272 31.08560756 19.38511418 31.4609375 30.09765625 C31.5125 31.40347656 31.5640625 32.70929688 31.6171875 34.0546875 C31.97031842 47.57307328 29.80814456 60.02899566 26.4609375 73.09765625 C25.8009375 73.09765625 25.1409375 73.09765625 24.4609375 73.09765625 C24.3990625 73.90203125 24.3371875 74.70640625 24.2734375 75.53515625 C23.35403595 79.56637842 21.73181168 82.45531469 19.65234375 85.9921875 C18.35854552 88.14318665 18.35854552 88.14318665 17.4609375 90.84765625 C15.45878705 95.35249476 11.41698861 98.31376843 7.4609375 101.09765625 C7.1309375 99.77765625 6.8009375 98.45765625 6.4609375 97.09765625 C5.8009375 97.09765625 5.1409375 97.09765625 4.4609375 97.09765625 C4.4609375 96.43765625 4.4609375 95.77765625 4.4609375 95.09765625 C2.9759375 94.60265625 2.9759375 94.60265625 1.4609375 94.09765625 C0.9659375 91.12765625 0.9659375 91.12765625 0.4609375 88.09765625 C-0.1990625 88.09765625 -0.8590625 88.09765625 -1.5390625 88.09765625 C-3.30368933 85.0095593 -3.5390625 83.86453489 -3.5390625 80.09765625 C-4.5290625 79.76765625 -5.5190625 79.43765625 -6.5390625 79.09765625 C-9.64096795 74.44479807 -10.87752754 69.68232949 -10.5390625 64.09765625 C-11.1990625 64.09765625 -11.8590625 64.09765625 -12.5390625 64.09765625 C-14.43836542 56.21215754 -14.73174649 48.54996609 -14.7265625 40.47265625 C-14.72720703 39.5077124 -14.72785156 38.54276855 -14.72851562 37.54858398 C-14.60211092 20.69222888 -14.60211092 20.69222888 -11.5390625 16.09765625 C-10.82497662 12.8628472 -10.23579181 9.63573721 -9.68359375 6.37109375 C-9.36213007 4.60131521 -8.95662773 2.84725456 -8.5390625 1.09765625 C-5.66887809 -0.33743596 -3.20362527 -0.01392881 0 0 Z " fill="#DD886E" transform="translate(177.5390625,194.90234375)"/>
<path d="M0 0 C1.05638672 0.00451172 2.11277344 0.00902344 3.20117188 0.01367188 C5.78000908 0.02534082 8.35872294 0.04171115 10.9375 0.0625 C10.6075 2.0425 10.2775 4.0225 9.9375 6.0625 C8.9475 6.3925 7.9575 6.7225 6.9375 7.0625 C6.793125 7.84625 6.64875 8.63 6.5 9.4375 C5.9375 12.0625 5.9375 12.0625 4.9375 14.0625 C4.2775 14.0625 3.6175 14.0625 2.9375 14.0625 C2.73125 14.743125 2.525 15.42375 2.3125 16.125 C0.50902999 19.97786774 -1.87529458 23.22603968 -5.0625 26.0625 C-6.38759583 26.42720527 -7.72059607 26.76554422 -9.0625 27.0625 C-10.17086423 28.94566159 -10.17086423 28.94566159 -11.0625 31.0625 C-14.6661264 35.61444914 -20.72228401 38.12060328 -26.0625 40.0625 C-26.0625 40.7225 -26.0625 41.3825 -26.0625 42.0625 C-53.51392083 53.59671043 -53.51392083 53.59671043 -60.0625 51.0625 C-61.6171875 49.05859375 -61.6171875 49.05859375 -62.9375 46.5 C-65.75234565 41.40542259 -69.07779981 37.28298126 -73.0625 33.0625 C-72.0725 32.5675 -72.0725 32.5675 -71.0625 32.0625 C-70.794375 31.340625 -70.52625 30.61875 -70.25 29.875 C-68.45365902 25.62050821 -66.04594304 21.89763391 -61.6875 20.0625 C-60.82125 19.7325 -59.955 19.4025 -59.0625 19.0625 C-57.93575138 18.08801471 -56.83363922 17.08470843 -55.75 16.0625 C-52.05940738 12.72958596 -48.91700193 11.91416701 -44.0625 11.0625 C-44.0625 10.4025 -44.0625 9.7425 -44.0625 9.0625 C-42.7425 9.0625 -41.4225 9.0625 -40.0625 9.0625 C-40.0625 8.4025 -40.0625 7.7425 -40.0625 7.0625 C-26.34163409 2.42128756 -14.49315688 -0.11887132 0 0 Z " fill="#82BCAA" transform="translate(259.0625,141.9375)"/>
<path d="M0 0 C17.08240535 0 17.08240535 0 22 4 C25.85015887 10.08510118 26.65445689 15.99263829 26.5625 23.0625 C26.58634766 23.90876953 26.61019531 24.75503906 26.63476562 25.62695312 C26.62059217 31.75461169 25.23065525 36.42803879 21 41 C14.68951777 44.78533042 8.30914581 44 1 44 C0.67 29.48 0.34 14.96 0 0 Z " fill="#E098A4" transform="translate(107,214)"/>
<path d="M0 0 C4.62 0 9.24 0 14 0 C14 0.66 14 1.32 14 2 C14.9075 2.268125 15.815 2.53625 16.75 2.8125 C19.76173571 3.9129419 21.74414517 4.74414517 24 7 C24 8.32 24 9.64 24 11 C24.66 11 25.32 11 26 11 C27.54425708 19.49341393 28.77671949 28.68204254 24.19140625 36.3828125 C20.38354298 41.55151871 16.20105943 42.9056954 10 44 C7.03 44 4.06 44 1 44 C0.67 29.48 0.34 14.96 0 0 Z " fill="#83CDDF" transform="translate(177,81)"/>
<path d="M0 0 C1.63001953 0.15275391 1.63001953 0.15275391 3.29296875 0.30859375 C4.54013672 0.43427734 4.54013672 0.43427734 5.8125 0.5625 C5.8125 1.2225 5.8125 1.8825 5.8125 2.5625 C6.39 2.645 6.9675 2.7275 7.5625 2.8125 C10.54811669 3.80770556 11.88711449 5.08700434 13.8125 7.5625 C14.0625 10.3125 14.0625 10.3125 13.8125 12.5625 C14.4725 12.5625 15.1325 12.5625 15.8125 12.5625 C16.26533019 33.29205975 16.26533019 33.29205975 11.9375 39.0625 C9.8125 40.5625 9.8125 40.5625 5.8125 40.5625 C5.8125 41.2225 5.8125 41.8825 5.8125 42.5625 C0.8625 42.5625 -4.0875 42.5625 -9.1875 42.5625 C-9.1875 28.7025 -9.1875 14.8425 -9.1875 0.5625 C-5.76060364 -0.57979879 -3.57647782 -0.34611076 0 0 Z " fill="#FADB8C" transform="translate(257.1875,214.4375)"/>
<path d="M0 0 C5.27532179 0.65038214 7.01481725 2.69958152 10.28515625 6.6640625 C17 15.81093394 17 15.81093394 17 20 C7.76 20 -1.48 20 -11 20 C-11 19.34 -11 18.68 -11 18 C-12.11375 18.061875 -13.2275 18.12375 -14.375 18.1875 C-15.57125 18.125625 -16.7675 18.06375 -18 18 C-18.66 17.01 -19.32 16.02 -20 15 C-16.7 15.33 -13.4 15.66 -10 16 C-6.25993934 10.84478126 -2.77055785 5.75423553 0 0 Z " fill="#779496" transform="translate(183,175)"/>
<path d="M0 0 C16.11111111 0 16.11111111 0 22 4 C22.76953125 6.140625 22.76953125 6.140625 23 8 C22.29875 7.38125 21.5975 6.7625 20.875 6.125 C15.6625 2.97083333 15.6625 2.97083333 3 2 C3 15.2 3 28.4 3 42 C16.48296108 41.02941927 16.48296108 41.02941927 22 38 C21 41 21 41 19.3203125 41.94921875 C12.55589526 44.22408505 8.72482793 44 1 44 C0.67 29.48 0.34 14.96 0 0 Z " fill="#EF8A93" transform="translate(107,214)"/>
<path d="M0 0 C0.99 0 1.98 0 3 0 C2.67 1.32 2.34 2.64 2 4 C1.01 4 0.02 4 -1 4 C-1.268125 4.598125 -1.53625 5.19625 -1.8125 5.8125 C-4.45354256 10.6775784 -8.16040192 12.27704056 -13.18380737 14.18612671 C-17.86919784 15.54019394 -22.37683605 15.5129481 -27.22265625 15.42578125 C-28.24934921 15.42249313 -29.27604218 15.41920502 -30.33384705 15.41581726 C-32.48263993 15.40546886 -34.63140657 15.38564402 -36.7800293 15.35668945 C-40.08462725 15.31220212 -43.38849753 15.29518346 -46.69335938 15.28320312 C-48.78646895 15.26979467 -50.87956951 15.25487604 -52.97265625 15.23828125 C-53.96419205 15.23089432 -54.95572784 15.22350739 -55.97731018 15.21589661 C-56.88593307 15.20306137 -57.79455597 15.19022614 -58.73071289 15.17700195 C-59.93456383 15.16223564 -59.93456383 15.16223564 -61.16273499 15.14717102 C-63 15 -63 15 -64 14 C-64.07244053 11.98035801 -64.08377188 9.95832876 -64.0625 7.9375 C-64.05347656 6.83277344 -64.04445312 5.72804688 -64.03515625 4.58984375 C-64.02355469 3.73519531 -64.01195312 2.88054687 -64 2 C-63.67 2 -63.34 2 -63 2 C-62.67 5.96 -62.34 9.92 -62 14 C-56.28886458 13.90609322 -50.57813457 13.79991759 -44.86743164 13.68261719 C-42.92673911 13.64445341 -40.98597889 13.60957905 -39.04516602 13.578125 C-36.24731332 13.53219974 -33.44992162 13.47425172 -30.65234375 13.4140625 C-29.36129982 13.39673569 -29.36129982 13.39673569 -28.04417419 13.37905884 C-19.23274042 13.16562992 -11.46740782 10.81726134 -4 6 C-2.36480084 4.09077021 -1.27033058 2.18496859 0 0 Z " fill="#FCD988" transform="translate(284,255)"/>
<path d="M0 0 C0 0.99 0 1.98 0 3 C-0.598125 3.2475 -1.19625 3.495 -1.8125 3.75 C-4.10795497 4.85192952 -4.10795497 4.85192952 -5.35647583 6.96989441 C-8.30201828 10.60827242 -12.55255285 11.13650546 -17 12 C-20.76393356 12.35118446 -24.48019496 12.35287125 -28.2578125 12.29296875 C-29.28687714 12.28872391 -30.31594177 12.28447906 -31.37619019 12.28010559 C-34.62607266 12.26346639 -37.87530859 12.22584231 -41.125 12.1875 C-43.34374097 12.17243407 -45.56249178 12.15874903 -47.78125 12.14648438 C-53.18771633 12.1136115 -58.59381195 12.06356208 -64 12 C-64 11.67 -64 11.34 -64 11 C-62.79053711 10.98541748 -61.58107422 10.97083496 -60.33496094 10.95581055 C-55.79463953 10.89729655 -51.25478692 10.8200727 -46.71484375 10.73754883 C-44.75984374 10.70454693 -42.8047541 10.6764403 -40.84960938 10.65356445 C-21.09004332 11.19450987 -21.09004332 11.19450987 -4.40234375 2.3046875 C-3 1 -3 1 0 0 Z " fill="#EB929E" transform="translate(145,258)"/>
<path d="M0 0 C0.99 0.33 1.98 0.66 3 1 C-2.75 5 -2.75 5 -5 5 C-5 5.66 -5 6.32 -5 7 C-31.49779413 18.13352695 -31.49779413 18.13352695 -39 16 C-35.88304308 13.92202872 -33.36530035 13.38161387 -29.74609375 12.6328125 C-23.72395295 11.24506455 -17.31922101 9.69793188 -11.80078125 6.875 C-10 6 -10 6 -7 6 C-6.67 5.01 -6.34 4.02 -6 3 C-4.68 3 -3.36 3 -2 3 C-2 2.34 -2 1.68 -2 1 C-1.34 0.67 -0.68 0.34 0 0 Z " fill="#9ABC99" transform="translate(238,177)"/>
<path d="M0 0 C3.3 0 6.6 0 10 0 C10 0.33 10 0.66 10 1 C9.05125 1.28875 8.1025 1.5775 7.125 1.875 C3.94788422 2.76825109 3.94788422 2.76825109 2 5 C1.67 6.65 1.34 8.3 1 10 C14.53 10 28.06 10 42 10 C42 10.33 42 10.66 42 11 C28.14 11 14.28 11 0 11 C0 7.37 0 3.74 0 0 Z " fill="#F0707D" transform="translate(81,258)"/>
<path d="M0 0 C4.28253645 4.4771972 4.96410963 10.13953786 5.0390625 16.11328125 C4.61486486 24.38513514 4.61486486 24.38513514 0 29 C0.66 21.08 1.32 13.16 2 5 C1.34 5 0.68 5 0 5 C0 3.35 0 1.7 0 0 Z M-2 29 C-1.34 29.33 -0.68 29.66 0 30 C-1.32 30.99 -2.64 31.98 -4 33 C-3.34 31.68 -2.68 30.36 -2 29 Z " fill="#FCD175" transform="translate(271,222)"/>
<path d="M0 0 C0.556875 0.70125 1.11375 1.4025 1.6875 2.125 C2.8321875 3.548125 2.8321875 3.548125 4 5 C4.42023438 5.52722656 4.84046875 6.05445313 5.2734375 6.59765625 C7.39236684 9.21100244 9.1782327 11.1188218 12 13 C12 13.66 12 14.32 12 15 C12.5775 15.2475 13.155 15.495 13.75 15.75 C16.32939979 17.18299988 18.06121592 18.78424676 20 21 C20 21.66 20 22.32 20 23 C15.83265394 21.8093297 13.93857704 19.97466923 11.3203125 16.57421875 C9.84185917 14.71171092 9.84185917 14.71171092 6.9375 12.5 C3.8644312 9.88462229 1.94910128 7.5233754 0 4 C0 2.68 0 1.36 0 0 Z " fill="#9597A3" transform="translate(107,149)"/>
<path d="M0 0 C0 0.66 0 1.32 0 2 C-4.47058824 6 -4.47058824 6 -7 6 C-7.2475 6.598125 -7.495 7.19625 -7.75 7.8125 C-9.19192497 10.33586869 -10.52549626 11.50030076 -13 13 C-13.99 13 -14.98 13 -16 13 C-16 13.66 -16 14.32 -16 15 C-17.95421035 15.86355778 -19.91351347 16.71559934 -21.875 17.5625 C-22.96554688 18.03816406 -24.05609375 18.51382813 -25.1796875 19.00390625 C-26.11039063 19.33261719 -27.04109375 19.66132813 -28 20 C-28.66 19.67 -29.32 19.34 -30 19 C-24.375 16 -24.375 16 -21 16 C-21 15.34 -21 14.68 -21 14 C-19.13671875 12.4921875 -19.13671875 12.4921875 -16.6875 10.875 C-15.88699219 10.33617187 -15.08648437 9.79734375 -14.26171875 9.2421875 C-12 8 -12 8 -9 8 C-8.67 7.01 -8.34 6.02 -8 5 C-2.53488372 0 -2.53488372 0 0 0 Z " fill="#E2DAA0" transform="translate(254,168)"/>
<path d="M0 0 C1.30195313 0.00322266 2.60390625 0.00644531 3.9453125 0.00976562 C5.32552149 0.01812159 6.70572982 0.02658654 8.0859375 0.03515625 C9.47395676 0.04017124 10.86197772 0.04473415 12.25 0.04882812 C15.65368882 0.06064649 19.05729189 0.07712191 22.4609375 0.09765625 C22.4609375 0.42765625 22.4609375 0.75765625 22.4609375 1.09765625 C13.5509375 1.09765625 4.6409375 1.09765625 -4.5390625 1.09765625 C-5.5290625 4.72765625 -6.5190625 8.35765625 -7.5390625 12.09765625 C-8.5290625 12.75765625 -9.5190625 13.41765625 -10.5390625 14.09765625 C-10.25833177 11.95036484 -9.96417751 9.80482432 -9.6640625 7.66015625 C-9.50164062 6.46519531 -9.33921875 5.27023438 -9.171875 4.0390625 C-8.96304688 3.06839844 -8.75421875 2.09773437 -8.5390625 1.09765625 C-5.66887809 -0.33743596 -3.20362527 -0.01392881 0 0 Z " fill="#D58E7E" transform="translate(177.5390625,194.90234375)"/>
<path d="M0 0 C0.99 0 1.98 0 3 0 C2.67 1.32 2.34 2.64 2 4 C1.01 4 0.02 4 -1 4 C-1.268125 4.598125 -1.53625 5.19625 -1.8125 5.8125 C-4.04274848 9.92085247 -6.65548744 11.64872562 -11.015625 13.4375 C-14.38813144 14.39348608 -17.51513501 14.18341395 -21 14 C-21 13.67 -21 13.34 -21 13 C-19.576875 12.6596875 -19.576875 12.6596875 -18.125 12.3125 C-10.16966311 9.99556889 -4.2085599 7.23872303 0 0 Z " fill="#FCD57C" transform="translate(284,255)"/>
<path d="M0 0 C5.23647464 1.83984244 7.15882535 3.34880531 9.6875 8.3125 C10.95124912 11.86303325 11.27226283 14.27907467 11 18 C10.73058594 17.43410156 10.46117187 16.86820313 10.18359375 16.28515625 C8.94295056 13.88985503 7.55594153 11.68336245 6.0625 9.4375 C5.55847656 8.67308594 5.05445313 7.90867188 4.53515625 7.12109375 C3.08109997 4.98570038 3.08109997 4.98570038 1.30859375 3.34765625 C0 2 0 2 0 0 Z " fill="#EF858F" transform="translate(140,209)"/>
<path d="M0 0 C-1.25 1.5 -1.25 1.5 -3 3 C-4.32 3 -5.64 3 -7 3 C-7.33 4.32 -7.66 5.64 -8 7 C-8 6.34 -8 5.68 -8 5 C-12.95 5.33 -17.9 5.66 -23 6 C-18.83503436 3.91751718 -14.8205445 2.62154876 -10.375 1.3125 C-9.59898437 1.07466797 -8.82296875 0.83683594 -8.0234375 0.59179688 C-2.24017687 -1.12008843 -2.24017687 -1.12008843 0 0 Z " fill="#DED8A2" transform="translate(223,189)"/>
<path d="M0 0 C1 3 1 3 0.0625 5.1875 C-0.288125 5.785625 -0.63875 6.38375 -1 7 C-1.66 7 -2.32 7 -3 7 C-3.226875 7.721875 -3.45375 8.44375 -3.6875 9.1875 C-5.24831013 12.53209313 -7.3031287 14.51603959 -10 17 C-10.33 16.01 -10.66 15.02 -11 14 C-10.34 13.01 -9.68 12.02 -9 11 C-8.01 11 -7.02 11 -6 11 C-5.67 9.02 -5.34 7.04 -5 5 C-3.68 4.67 -2.36 4.34 -1 4 C-0.67 2.68 -0.34 1.36 0 0 Z " fill="#9CBA94" transform="translate(265,149)"/>
<path d="M0 0 C0 0.99 0 1.98 0 3 C-0.598125 3.2475 -1.19625 3.495 -1.8125 3.75 C-4.11578369 4.84674695 -4.11578369 4.84674695 -5.3125 7 C-7.82558355 9.97846939 -10.22538669 10.25745312 -14 11 C-16.6933048 11.14125724 -19.29935807 11.09475937 -22 11 C-22 10.67 -22 10.34 -22 10 C-20.82244141 9.77957031 -20.82244141 9.77957031 -19.62109375 9.5546875 C-13.35650271 8.21721653 -8.93176195 6.93783284 -4.40234375 2.3046875 C-3 1 -3 1 0 0 Z " fill="#EC8992" transform="translate(145,258)"/>
<path d="M0 0 C2.56694395 2.23212517 3.41457976 3.66760787 4 7 C4.06790675 9.24907152 4.08499984 11.50001605 4.0625 13.75 C4.05347656 14.92046875 4.04445312 16.0909375 4.03515625 17.296875 C4.02355469 18.18890625 4.01195312 19.0809375 4 20 C3.34 20.33 2.68 20.66 2 21 C1.90912109 19.35451172 1.90912109 19.35451172 1.81640625 17.67578125 C1.73195502 16.22134346 1.64730934 14.76691695 1.5625 13.3125 C1.52318359 12.59126953 1.48386719 11.87003906 1.44335938 11.12695312 C1.21814322 7.33292718 0.87160695 3.71348508 0 0 Z " fill="#F27A84" transform="translate(131,222)"/>
<path d="M0 0 C0.33 0 0.66 0 1 0 C1.51869951 18.64436585 1.51869951 18.64436585 -2.24609375 23.66015625 C-3.625 25.0625 -3.625 25.0625 -6 27 C-4.94124926 23.59687262 -3.99097846 20.98646769 -2 18 C-1.54723252 15.97750421 -1.54723252 15.97750421 -1.3671875 13.76953125 C-1.24150391 12.56586914 -1.24150391 12.56586914 -1.11328125 11.33789062 C-1.03464844 10.50451172 -0.95601562 9.67113281 -0.875 8.8125 C-0.78863281 7.96751953 -0.70226562 7.12253906 -0.61328125 6.25195312 C-0.4014261 4.16871077 -0.19973223 2.08443958 0 0 Z " fill="#ED8D9B" transform="translate(152,231)"/>
<path d="M0 0 C0.66 0.33 1.32 0.66 2 1 C2.0875127 4.22899426 2.14056146 7.45768116 2.1875 10.6875 C2.22520508 12.05551758 2.22520508 12.05551758 2.26367188 13.45117188 C2.31848438 18.47565155 2.28571911 21.90363103 -1 26 C-2.36884778 23.26230445 -1.3507797 21.84263744 -0.48925781 19.05029297 C0.37863665 15.41327816 0.20783378 11.78046218 0.125 8.0625 C0.11146484 6.89364258 0.11146484 6.89364258 0.09765625 5.70117188 C0.07433691 3.80064553 0.03847586 1.90027992 0 0 Z " fill="#EB929E" transform="translate(131,226)"/>
<path d="M0 0 C0.33 0 0.66 0 1 0 C1.42691034 8.44333791 1.63421641 14.75903687 -3 22 C-3.33 22 -3.66 22 -4 22 C-4.37903226 17.4516129 -4.37903226 17.4516129 -2.53125 15.25 C-0.47614253 12.23025025 -0.49352099 9.87041973 -0.3125 6.25 C-0.24675781 5.07953125 -0.18101562 3.9090625 -0.11328125 2.703125 C-0.05720703 1.36507812 -0.05720703 1.36507812 0 0 Z " fill="#FBD377" transform="translate(291,233)"/>
<path d="M0 0 C5.40188823 1.5236095 10.314996 3.92269211 15 7 C15.33 7.66 15.66 8.32 16 9 C11.24518354 8.42365861 8.02951788 6.44931479 4 4 C4 3.34 4 2.68 4 2 C2.68 1.67 1.36 1.34 0 1 C0 0.67 0 0.34 0 0 Z " fill="#9495AA" transform="translate(133,177)"/>
<path d="M0 0 C0.556875 0.70125 1.11375 1.4025 1.6875 2.125 C2.89812838 3.63010556 4.11795876 5.13034117 5.4140625 6.5625 C6.682356 7.97958771 7.84844043 9.4865217 9 11 C8.67 11.99 8.34 12.98 8 14 C0.14806378 5.92255125 0.14806378 5.92255125 0 0 Z " fill="#B59BAD" transform="translate(107,149)"/>
<path d="M0 0 C10.15317287 1.33041575 10.15317287 1.33041575 13.6875 4.125 C14.120625 4.74375 14.55375 5.3625 15 6 C9.22621075 5.5188509 5.04140164 3.81532819 0 1 C0 0.67 0 0.34 0 0 Z " fill="#9698AB" transform="translate(149,186)"/>
<path d="M0 0 C0.66386719 0.14308594 1.32773438 0.28617188 2.01171875 0.43359375 C5.59583713 1.11293645 9.1961572 1.59531696 12.8125 2.0625 C13.85180664 2.19881836 13.85180664 2.19881836 14.91210938 2.33789062 C16.60787692 2.56009465 18.30391201 2.78025527 20 3 C20 3.33 20 3.66 20 4 C7.16523209 4.20888411 7.16523209 4.20888411 2 3 C1.34 2.01 0.68 1.02 0 0 Z " fill="#87919A" transform="translate(163,190)"/>
<path d="M0 0 C0.33 0 0.66 0 1 0 C1.08082094 1.95766281 1.13910778 3.91626728 1.1875 5.875 C1.23970703 7.51082031 1.23970703 7.51082031 1.29296875 9.1796875 C1.19628906 10.11039063 1.09960938 11.04109375 1 12 C0.01 12.66 -0.98 13.32 -2 14 C-1.85795259 12.41632253 -1.71119847 10.83306682 -1.5625 9.25 C-1.48128906 8.36828125 -1.40007812 7.4865625 -1.31640625 6.578125 C-1.03761535 4.30649548 -0.61209423 2.20148177 0 0 Z " fill="#A0D3D6" transform="translate(97,78)"/>
<path d="M0 0 C0.99 0 1.98 0 3 0 C3 2.66666667 3 5.33333333 3 8 C2.34 8.66 1.68 9.32 1 10 C0.67 6.7 0.34 3.4 0 0 Z " fill="#9FCDD5" transform="translate(95,112)"/>
<path d="M0 0 C-3.1254959 2.64465038 -6.08788267 3.84414715 -10 5 C-8.20177069 -0.39468792 -5.09771267 -0.22656501 0 0 Z " fill="#F7E0A8" transform="translate(300,316)"/>
<path d="M0 0 C1.65 0 3.3 0 5 0 C3.02 4.455 3.02 4.455 1 9 C0.67 9 0.34 9 0 9 C0 6.03 0 3.06 0 0 Z " fill="#F4D26F" transform="translate(221,258)"/>
<path d="M0 0 C0.99 0 1.98 0 3 0 C2.67 1.32 2.34 2.64 2 4 C1.01 4 0.02 4 -1 4 C-1.66 5.32 -2.32 6.64 -3 8 C-3.66 7.67 -4.32 7.34 -5 7 C-4.24172908 5.82512964 -3.46792245 4.66027408 -2.6875 3.5 C-2.25824219 2.8503125 -1.82898438 2.200625 -1.38671875 1.53125 C-0.70029297 0.77328125 -0.70029297 0.77328125 0 0 Z " fill="#F8D074" transform="translate(284,255)"/>
<path d="M0 0 C-1.25 1.5 -1.25 1.5 -3 3 C-4.32 3 -5.64 3 -7 3 C-7.33 4.32 -7.66 5.64 -8 7 C-8 5.02 -8 3.04 -8 1 C-2.25 -1.125 -2.25 -1.125 0 0 Z " fill="#E9DC9D" transform="translate(223,189)"/>
<path d="M0 0 C0.75 1.75 0.75 1.75 1 4 C-0.8125 6.25 -0.8125 6.25 -3 8 C-3.66 8 -4.32 8 -5 8 C-5 8.66 -5 9.32 -5 10 C-5.66 10 -6.32 10 -7 10 C-5.55079575 6.61852341 -3.62738345 4.54262915 -1 2 C-0.67 1.34 -0.34 0.68 0 0 Z " fill="#EEDE9B" transform="translate(261,158)"/>
<path d="M0 0 C0 3 0 3 -2.5 5.6875 C-3.325 6.450625 -4.15 7.21375 -5 8 C-5.33 7.01 -5.66 6.02 -6 5 C-3.9927092 1.9890638 -3.16115776 1.36983503 0 0 Z " fill="#ACC598" transform="translate(260,158)"/>
<path d="M0 0 C1.45606519 4.52092968 0.27032841 7.51648796 -1 12 C-1.33 12 -1.66 12 -2 12 C-2.05422947 10.5629191 -2.09289723 9.12524538 -2.125 7.6875 C-2.14820313 6.88699219 -2.17140625 6.08648437 -2.1953125 5.26171875 C-2 3 -2 3 0 0 Z " fill="#DD9086" transform="translate(166,211)"/>
<path d="M0 0 C2.125 0.375 2.125 0.375 4 1 C1.6875 3.5 1.6875 3.5 -1 6 C-1.99 6 -2.98 6 -4 6 C-2.84826645 3.53199953 -1.95216435 1.95216435 0 0 Z " fill="#9ABF9A" transform="translate(246,170)"/>
<path d="M0 0 C0 3.99904969 -1.72586967 5.80200422 -4 9 C-4 6.66666667 -4 4.33333333 -4 2 C-2.68 1.34 -1.36 0.68 0 0 Z " fill="#F0DFAF" transform="translate(335,281)"/>
<path d="M0 0 C0.33 0.99 0.66 1.98 1 3 C0.01 3.33 -0.98 3.66 -2 4 C-1.34 2.68 -0.68 1.36 0 0 Z M-6 5 C-5.01 5.33 -4.02 5.66 -3 6 C-4.65 6.66 -6.3 7.32 -8 8 C-7.34 7.01 -6.68 6.02 -6 5 Z " fill="#E19699" transform="translate(148,256)"/>
<path d="M0 0 C-1.5625 1.5625 -1.5625 1.5625 -4 3 C-7.75 2.6875 -7.75 2.6875 -11 2 C-7.00042393 -0.06874624 -4.43559483 -1.37656391 0 0 Z " fill="#A3D2E1" transform="translate(170,12)"/>
<path d="M0 0 C1.48199902 0.44909061 2.96055236 0.90956564 4.4375 1.375 C5.26121094 1.63023437 6.08492187 1.88546875 6.93359375 2.1484375 C9 3 9 3 10 5 C8.51793505 4.745504 7.03931385 4.47088238 5.5625 4.1875 C4.73878906 4.03667969 3.91507813 3.88585937 3.06640625 3.73046875 C2.38449219 3.48941406 1.70257813 3.24835938 1 3 C0.67 2.01 0.34 1.02 0 0 Z " fill="#C09EAE" transform="translate(147,186)"/>
<path d="M0 0 C0.66 0 1.32 0 2 0 C1.67 3.3 1.34 6.6 1 10 C0.67 10 0.34 10 0 10 C-0.19412181 8.52168779 -0.38012131 7.04230684 -0.5625 5.5625 C-0.66691406 4.73878906 -0.77132813 3.91507812 -0.87890625 3.06640625 C-0.91886719 2.38449219 -0.95882813 1.70257813 -1 1 C-0.67 0.67 -0.34 0.34 0 0 Z " fill="#9ECED8" transform="translate(277,112)"/>
</svg>
